<svg xmlns="http://www.w3.org/2000/svg" xmlns:xlink="http://www.w3.org/1999/xlink" viewBox="0,0,256,256" width="24px" height="24px" fill-rule="nonzero"><g fill="none" fill-rule="nonzero" stroke="none" stroke-width="none" stroke-linecap="none" stroke-linejoin="miter" stroke-miterlimit="10" stroke-dasharray="" stroke-dashoffset="0" font-family="none" font-weight="none" font-size="none" text-anchor="none" style="mix-blend-mode: normal"><g transform="scale(10.66667,10.66667)"><path d="M13.823,13.313c0,-0.979 2.119,-1.267 2.119,-3.559c0,-1.002 -0.069,-1.716 -0.518,-2.223c-0.035,-0.035 -0.058,-0.058 -0.092,-0.081c-0.161,-0.15 -0.346,-0.276 -0.576,-0.392c0,-0.334 1.878,-0.115 1.878,-0.76c-0.323,0 -4.112,0 -4.112,0c0,0 -3.018,0.08 -3.905,2.303c-0.092,0.196 -0.15,0.403 -0.196,0.622c-0.046,0.242 -0.081,0.507 -0.081,0.784c0,3.571 3.651,3.168 3.651,3.168c0,0 0,0.541 0,0.91c0,0.369 0.484,0.242 0.541,0.991c-0.242,0 -5.057,-0.138 -5.057,3.11c0,3.26 4.25,3.099 4.25,3.099c0,0 4.907,0.219 4.907,-3.813c0.002,-2.409 -2.809,-3.192 -2.809,-4.159zM10.264,10.202c-0.173,-0.702 -0.15,-1.382 0.046,-1.923c0.058,-0.219 0.15,-0.415 0.265,-0.576c0.207,-0.311 0.484,-0.518 0.829,-0.61c0.38,-0.092 0.772,-0.035 1.14,0.173c0.207,0.104 0.403,0.253 0.576,0.438c0.357,0.357 0.657,0.875 0.818,1.486c0.38,1.451 -0.115,2.845 -1.14,3.11c-1.014,0.287 -2.143,-0.658 -2.534,-2.098zM12.383,20.247c-1.693,0.115 -3.156,-0.806 -3.237,-2.062c-0.081,-1.267 1.232,-2.373 2.937,-2.5c1.693,-0.127 3.133,0.806 3.237,2.073c0.07,1.256 -1.232,2.374 -2.937,2.489z" fill="#ffffff" stroke="none" stroke-width="1" stroke-linecap="butt"></path><path d="M20,4l-4.571,3.429h-2.286c-0.194,-0.206 -0.389,-0.229 -0.594,-0.183c-0.366,-0.206 -0.754,-0.263 -1.131,-0.171c-0.344,0.091 -0.618,0.296 -0.824,0.605c-0.114,0.16 -0.206,0.354 -0.263,0.571c-0.354,0.172 -1.331,0.749 -1.331,0.749h-6l8,-5z" fill="#ffffff" stroke="none" stroke-width="1" stroke-linecap="butt"></path><path d="M18,9v1" fill="none" stroke="#ffffff" stroke-width="2" stroke-linecap="round"></path><path d="M18,5v3" fill="none" stroke="#ffffff" stroke-width="1" stroke-linecap="round"></path></g></g></svg>